<svg xmlns="http://www.w3.org/2000/svg" viewBox="0 0 32 32" width="32" height="32">
  <rect width="32" height="32" rx="8" fill="#0a0a0a"/>
  <g transform="translate(4 4)">
    <path d="M12 2a3 3 0 0 0-3 3v6a3 3 0 0 0 6 0V5a3 3 0 0 0-3-3z" fill="#e5342e"/>
    <g stroke="#ffffff" stroke-width="1" stroke-linecap="round" opacity="0.95">
      <line x1="10" y1="5.4" x2="14" y2="5.4"/>
      <line x1="10" y1="7.5" x2="14" y2="7.5"/>
      <line x1="10" y1="9.6" x2="14" y2="9.6"/>
    </g>
    <path d="M5 11a7 7 0 0 0 14 0" fill="none" stroke="#e5342e" stroke-width="1.8" stroke-linecap="round"/>
    <line x1="12" y1="18" x2="12" y2="22" stroke="#e5342e" stroke-width="1.8" stroke-linecap="round"/>
    <line x1="8" y1="22" x2="16" y2="22" stroke="#e5342e" stroke-width="1.8" stroke-linecap="round"/>
  </g>
</svg>
